<svg id="Layer_1" data-name="Layer 1" xmlns="http://www.w3.org/2000/svg" viewBox="0 0 179.79 33.64"><defs><style>.cls-1{fill:#333;fill-rule:evenodd;}</style></defs><title>logo</title><path class="cls-1" d="M208.2,292.14l7.14-1.92,1,3.6,0.66,2.48a3.72,3.72,0,0,1,.3,1.13,3.65,3.65,0,0,1-1.12.3l-2.45.66-3.57,1-1.92-7.2" transform="translate(-203.7 -290.22)"/><path class="cls-1" d="M206.28,300.84l5.58-1.5c0.36,1.42.77,2.84,1.14,4.26,0.09,0.34.19,0.68,0.27,1,0.13,0.52-.09.4-0.57,0.54-0.72.22-1.43,0.41-2.16,0.6l-2.1.54c-0.46.12-.61,0.33-0.78-0.15a10.46,10.46,0,0,1-.3-1c-0.36-1.42-.72-2.84-1.08-4.26" transform="translate(-203.7 -290.22)"/><path class="cls-1" d="M204.78,308.16c1-.23,2-0.6,3.06-0.83l0.59-.14c0.47-.1.47-0.18,0.59,0.3s0.25,1.06.42,1.58,0.22,1,.38,1.43a1.09,1.09,0,0,1,.13.69c-0.3.1-.59,0.19-0.89,0.26a29,29,0,0,0-3.14.86c-0.45-1.36-.69-2.78-1.14-4.14" transform="translate(-203.7 -290.22)"/><path class="cls-1" d="M203.7,314.46l1.29-.33a4.27,4.27,0,0,1,1.29-.33,3.86,3.86,0,0,1,.33,1.2l0.39,1.38-2.62.66s-0.61-2.31-.68-2.58" transform="translate(-203.7 -290.22)"/><path class="cls-1" d="M218.1,294.6l7.14-1.92,0.93,3.6,0.64,2.47a3.68,3.68,0,0,1,.29,1.13,3.65,3.65,0,0,1-1.12.3l-2.45.66-3.57,1-1.86-7.2" transform="translate(-203.7 -290.22)"/><path class="cls-1" d="M216.12,303.3c1.89-.47,3.75-1,5.64-1.5,0.47,1.89,1,3.76,1.49,5.65,0,0-5.09,1.42-5.63,1.55-0.48-1.91-1-3.79-1.5-5.7" transform="translate(-203.7 -290.22)"/><path class="cls-1" d="M214.68,310.62c1.36-.34,2.71-0.74,4.08-1.08,0.23,1,.6,2,0.84,3.06,0.16,0.66.48,1-.24,1.2-0.53.12-1,.3-1.56,0.42s-1,.27-1.5.42c-0.27.08-.52,0.23-0.58-0.07s-0.17-.55-0.26-0.83c-0.3-1-.55-2.08-0.78-3.12" transform="translate(-203.7 -290.22)"/><path class="cls-1" d="M213.54,317l2.58-.72,0.33,1.2a4.56,4.56,0,0,1,.39,1.38,4,4,0,0,1-1.2.33l-1.38.39L213.54,317" transform="translate(-203.7 -290.22)"/><path class="cls-1" d="M227.94,297.12l3.57-1,2.45-.66a3.68,3.68,0,0,1,1.12-.3,3.67,3.67,0,0,1,.3,1.12l0.66,2.45,1,3.57-3.57,1L231,304a3.68,3.68,0,0,1-1.12.3,3.66,3.66,0,0,1-.3-1.12l-0.66-2.45-1-3.57" transform="translate(-203.7 -290.22)"/><path class="cls-1" d="M226,305.82c1-.24,1.88-0.51,2.82-0.78,0.47-.14,1-0.23,1.44-0.36a5.17,5.17,0,0,1,1.38-.36,5,5,0,0,1,.36,1.38c0.12,0.49.28,1,.42,1.44s0.24,0.92.36,1.38a4.56,4.56,0,0,1,.36,1.44,6,6,0,0,1-1.38.36c-0.48.13-1,.22-1.44,0.36s-0.91.3-1.38,0.42a5.78,5.78,0,0,1-1.44.36,6,6,0,0,1-.36-1.38c-0.12-.48-0.24-1-0.36-1.44-0.24-.95-0.54-1.87-0.78-2.82" transform="translate(-203.7 -290.22)"/><path class="cls-1" d="M224.52,313.14c1.34-.45,2.76-0.65,4.08-1.14,0.45,1.36.69,2.78,1.14,4.14-1.37.3-2.71,0.76-4.08,1.07-0.07,0-1-3.67-1.14-4.07" transform="translate(-203.7 -290.22)"/><path class="cls-1" d="M223.44,319.44l2.58-.72,0.33,1.29a4.29,4.29,0,0,1,.33,1.29,3.86,3.86,0,0,1-1.2.33l-1.38.39-0.66-2.58" transform="translate(-203.7 -290.22)"/><path class="cls-1" d="M250.32,293.58h9.8c0.54,0-.22,2.79-0.38,3.18a5.24,5.24,0,0,1-2.67,2.76,14,14,0,0,1-3.81.76c-1.3.16-2.54,0-3.72,0.74-2.59,1.51-2.28,4.37-2.56,6.94-0.25,2.23-.12,5.81,1.54,7.52,1.88,1.93,5.05,1.36,7.47,1.84a5.84,5.84,0,0,1,4.29,5.57c0,0.77.15,0.81-.56,0.81h-9c-2.38,0-5.05-.27-6.94-1.89-2.07-1.77-2.88-4.56-3.12-7.18a68.83,68.83,0,0,1-.26-8.91c0.1-2.58.18-5.45,1.33-7.82,1.63-3.36,5.17-4.32,8.64-4.32" transform="translate(-203.7 -290.22)"/><path class="cls-1" d="M273.6,300.36c-2.56.45-4.13,1.47-4.68,4.14-0.15.74-.24,0.78,0.5,0.78h9a7.11,7.11,0,0,0-1.38-3.48,5.84,5.84,0,0,0-3.48-1.44m-1.68-6.78c2.7,0,6.12-.43,8.6.95s3.69,3.53,4.25,6.35a46.56,46.56,0,0,1,.46,9.15,12,12,0,0,1,0,1.66c-0.07.47-.3,0.31-0.75,0.31H268.8c0.43,2.4,1.31,4.26,3.9,4.8s5.52-.15,7.62,2.1a6.37,6.37,0,0,1,1.5,3.48c0,0.2.26,1.32,0,1.32H280c-3.26,0-6.81.42-10-.12-2.75-.46-5.32-1.64-6.52-4.34s-1.23-5.27-1.44-8a39.33,39.33,0,0,1,.26-9.1c0.42-2.55,1-5.24,3.25-6.85a10.93,10.93,0,0,1,6.43-1.66" transform="translate(-203.7 -290.22)"/><polyline class="cls-1" points="101.52 3.36 111.54 3.36 111.48 3.78 111.48 4.26 111.42 4.68 111.36 5.1 111.3 5.46 111.06 6.18 110.94 6.54 110.82 6.84 110.64 7.14 110.46 7.44 110.28 7.68 110.1 7.92 109.92 8.16 109.68 8.4 109.44 8.58 109.2 8.76 108.96 8.94 108.66 9.12 108.42 9.24 108.18 9.36 107.58 9.6 107.28 9.72 107.04 9.78 106.74 9.84 106.38 9.9 106.08 9.96 105.78 10.02 104.88 10.02 104.34 10.08 103.86 10.08 103.38 10.14 102.9 10.14 102.54 10.2 102.12 10.32 101.76 10.38 101.4 10.5 101.1 10.62 100.8 10.8 100.5 10.98 100.2 11.16 100.02 11.34 99.78 11.52 99.54 11.76 99.36 12 99.18 12.3 99.06 12.54 98.94 12.84 98.82 13.14 98.7 13.5 98.58 13.86 98.52 14.22 98.46 14.64 98.4 15 98.34 15.42 98.28 15.9 98.28 16.38 98.22 16.86 98.22 33.48 91.56 33.48 91.56 15.3 91.62 14.58 91.62 13.86 91.68 13.14 91.74 12.48 91.86 11.76 91.92 11.16 92.04 10.5 92.16 9.9 92.34 9.3 92.52 8.76 92.7 8.22 92.94 7.68 93.18 7.2 93.48 6.72 93.78 6.3 94.14 5.88 94.56 5.46 94.92 5.1 95.4 4.8 95.94 4.5 96.48 4.26 97.02 4.02 97.68 3.78 98.34 3.66 99.06 3.54 99.84 3.42 100.68 3.36 101.52 3.36"/><path class="cls-1" d="M326.88,300.36a5.73,5.73,0,0,0-3.48,1.44,7.14,7.14,0,0,0-1.38,3.48h8.73c0.75,0,1.06.19,0.84-.66-0.67-2.71-2-3.78-4.71-4.26m-1.68-6.78c2.7,0,6.12-.43,8.6.95a8.52,8.52,0,0,1,4.24,6.25,44.59,44.59,0,0,1,.48,8.67c0,0.6-.06,1.2-0.06,1.8s0.15,0.75-.47.75H322c0.3,1.45.63,3,1.92,4s3.26,1,4.92,1.08,3.59,0.42,4.59,1.74a7.9,7.9,0,0,1,1.39,2.39,17,17,0,0,1,.38,2.53H325c-2.35,0-5-.5-6.75-2.23-1.94-1.94-2.6-4.63-2.84-7.28a52.73,52.73,0,0,1-.18-9c0.23-2.82.25-5.92,2-8.33,1.84-2.58,4.94-3.25,8-3.25" transform="translate(-203.7 -290.22)"/><path class="cls-1" d="M351.84,293.58h9.8c0.55,0-.22,2.69-0.35,3.09a5.19,5.19,0,0,1-2.55,2.79c-2.34,1.19-5.09.25-7.38,1.38-2.75,1.36-2.55,4.26-2.83,6.86a91.21,91.21,0,0,0,0,9.86V323a5.19,5.19,0,0,1,0,.73h-2.22c-0.38,0-4.42.07-4.42-.06V308.7c0-3.38-.07-7.07,1.2-10.26,1.48-3.73,5.1-4.86,8.82-4.86" transform="translate(-203.7 -290.22)"/><path class="cls-1" d="M376.8,309.66c0.14,2.5-.45,5-2.46,6.51-1.63,1.23-4.26.79-5.76-.45a3.87,3.87,0,0,1-1.26-2c0-.78.88-1.66,1.38-2.16,1.66-1.68,4.54-.9,6.6-1.41,0.51-.13,1-0.33,1.5-0.45m-15.42,9c1,2.66,3,3.86,5.55,4.71a13,13,0,0,0,4,.33,32.07,32.07,0,0,0,4.51-.1,11.53,11.53,0,0,0,1.85-.38,8.65,8.65,0,0,1,1.8-.78,7.87,7.87,0,0,1,1.44.78,5.33,5.33,0,0,0,1.86.42c0.34,0,1,.31,1-0.15v-7.82c0-3.07.09-6.16,0-9.24-0.1-2.68,0-5.56-1.15-8.07-2.75-6.18-10.66-4.78-16.15-4.78h-2.64a12.22,12.22,0,0,0,.45,2.75,5.55,5.55,0,0,0,4.19,3.7c2.89,0.58,7.22-.2,8.13,3.57-4.14,0-9.89-.91-13.14,2.34s-3.36,8.8-1.74,12.72" transform="translate(-203.7 -290.22)"/><path class="cls-1" d="M294.72,300.3h-7.67a2.67,2.67,0,0,1-.85,0,4.51,4.51,0,0,1,.08-1.43,6.84,6.84,0,0,1,.94-2.65c2.43-3.71,8.4-2.64,12.12-2.64a8.6,8.6,0,0,0-4.62,6.72" transform="translate(-203.7 -290.22)"/></svg>