<?xml version="1.0" encoding="utf-8"?>
<!-- Generator: Adobe Illustrator 16.0.0, SVG Export Plug-In . SVG Version: 6.00 Build 0)  -->
<!DOCTYPE svg PUBLIC "-//W3C//DTD SVG 1.1//EN" "http://www.w3.org/Graphics/SVG/1.1/DTD/svg11.dtd">
<svg version="1.1" id="Layer_1" xmlns="http://www.w3.org/2000/svg" xmlns:xlink="http://www.w3.org/1999/xlink" x="0px" y="0px"
	 width="49px" height="23px" viewBox="0 0 49 23" enable-background="new 0 0 49 23" xml:space="preserve">
<rect x="2.422" y="2.688" fill="#942A73" width="43.766" height="17.624"/>
<g>
	<defs>
		<rect id="SVGID_1_" width="49" height="23"/>
	</defs>
	<clipPath id="SVGID_2_">
		<use xlink:href="#SVGID_1_"  overflow="visible"/>
	</clipPath>
	<path clip-path="url(#SVGID_2_)" fill="#FEDC00" d="M24.941,0l0.002,0.002c-4.067,0.42-8.535,1.416-12.491,3.108
		C8.68,3.396,4.947,3.848,1.298,4.521C1.282,4.534,1.267,4.547,1.25,4.562l0.013-0.028l0.001-0.002l0.008-0.021l0.012-0.029
		L1.287,4.48l0.029-0.069l0.01-0.021L1.34,4.358l0.002-0.003l0.029-0.066l0.008-0.018l0.013-0.028l0.04-0.085L1.45,4.116
		l0.002-0.003l0.035-0.071l0.015-0.034l0.04-0.081L1.56,3.892l0.008-0.016l0.03-0.055l0.024-0.048l0.004-0.008l0.031-0.058
		l0.015-0.031L1.712,3.6l0.024-0.04l0.036-0.061l0.022-0.041l0.04-0.071l0.02-0.03L1.89,3.293l0.029-0.046l0.036-0.058l0.021-0.035
		l0.018-0.027l0.005-0.007L2,3.117l0.017-0.026l0.024-0.036l0.017-0.028L2.063,3.02l0.004-0.004l0.013-0.02L2.11,2.951l0.017-0.023
		l0.014-0.023l0.03-0.042L2.206,2.81l0.039-0.052l0.023-0.031l0.037-0.052l0.032-0.042l0.005-0.008l0.055-0.067V2.556L2.435,2.51
		L2.47,2.468L2.474,2.46h0.002l0.057-0.069l0.243-0.062l0.242-0.06l0.244-0.06l0.247-0.06l0.248-0.057l0.25-0.058l0.251-0.058
		l0.253-0.056l0.254-0.056l0.257-0.056L5.28,1.755l0.26-0.054l0.261-0.053l0.262-0.053l0.263-0.052l0.265-0.048l0.267-0.05
		l0.269-0.05l0.271-0.05l0.269-0.046l0.273-0.046l0.273-0.046l0.276-0.047V1.157l0.276-0.043l0.279-0.042l0.278-0.043l0.28-0.043
		l0.283-0.041l0.283-0.041l0.285-0.041l0.287-0.039l0.285-0.04l0.29-0.037l0.29-0.039l0.29-0.035l0.292-0.037l0.293-0.034
		l0.295-0.033l0.294-0.032l0.297-0.032l0.299-0.032l0.299-0.028l0.3-0.029l0.302-0.028l0.302-0.03l0.304-0.026l0.303-0.025
		l0.306-0.025l0.306-0.023l0.309-0.025l0.309-0.023l0.311-0.021l0.309-0.02l0.313-0.02l0.313-0.02l0.314-0.016l0.313-0.019
		l0.316-0.016l0.316-0.015l0.317-0.013l0.318-0.014l0.32-0.014l0.32-0.011l0.319-0.01V0H21.3h2.951h0.25h0.247H24.941z
		 M47.742,18.376c-0.005,0.038-0.009,0.075-0.017,0.113l-0.012,0.03l-0.001,0.002l-0.04,0.09l-0.013,0.033l-0.002,0.004l-0.03,0.065
		l-0.007,0.017l-0.014,0.029l-0.039,0.083l-0.02,0.042l-0.002,0.002l-0.032,0.072l-0.019,0.033l-0.039,0.081l-0.018,0.035
		l-0.008,0.017l-0.005,0.008l-0.024,0.049l-0.024,0.046l-0.005,0.008l-0.029,0.057l-0.017,0.034l-0.042,0.073l-0.021,0.044
		l-0.036,0.06l-0.023,0.04l-0.039,0.069l-0.019,0.034l-0.037,0.063l-0.029,0.044l-0.037,0.061l-0.02,0.03l-0.021,0.038H47
		l-0.017,0.027l-0.024,0.038h-0.001l-0.021,0.029l-0.001,0.001v0.004l-0.002,0.003l-0.015,0.019l-0.029,0.047l-0.018,0.024
		l-0.014,0.021l-0.032,0.044l-0.034,0.05l-0.039,0.053l-0.023,0.032l-0.037,0.051l-0.033,0.043l-0.004,0.007l-0.055,0.069v0.002
		l-0.037,0.045l-0.035,0.044l-0.004,0.006l-0.06,0.069l-0.24,0.062l-0.244,0.061l-0.246,0.059l-0.246,0.06l-0.247,0.058l-0.25,0.061
		l-0.253,0.056l-0.253,0.057l-0.253,0.058l-0.256,0.053l-0.259,0.054l-0.26,0.055l-0.26,0.054l-0.263,0.05l-0.265,0.053
		l-0.265,0.052l-0.266,0.05l-0.269,0.049l-0.27,0.049l-0.271,0.047l-0.272,0.048l-0.273,0.047l-0.276,0.046l-0.277,0.045
		l-0.276,0.044l-0.279,0.042l-0.281,0.043l-0.281,0.042l-0.283,0.04l-0.285,0.041l-0.285,0.037h-0.001l-0.287,0.039l-0.286,0.039
		l-0.291,0.034l-0.292,0.037l-0.291,0.036l-0.293,0.034l-0.294,0.033l-0.296,0.035l-0.297,0.03l-0.298,0.031l-0.3,0.028l-0.3,0.031
		l-0.303,0.027l-0.301,0.028l-0.303,0.027l-0.305,0.025l-0.306,0.024l-0.307,0.025l-0.308,0.022h-0.001l-0.31,0.023l-0.308,0.021
		h-0.002l-0.31,0.021l-0.313,0.02l-0.312,0.02l-0.314,0.017l-0.313,0.019l-0.314,0.015l-0.317,0.017l-0.318,0.015l-0.316,0.013
		l-0.321,0.014l-0.319,0.011L28.195,23h-0.496h-2.754c3.766-0.441,7.768-1.486,11.354-3.093c3.819-0.285,7.6-0.739,11.327-1.427
		C47.666,18.447,47.704,18.411,47.742,18.376"/>
	<path clip-path="url(#SVGID_2_)" fill="#EB2227" d="M12.452,3.11C8.06,4.99,4.298,7.729,2.422,11.5
		c-0.986-1.98-1.454-4.246-1.22-6.82L1.22,4.636l0.016-0.038L1.25,4.562c0.016-0.015,0.031-0.028,0.048-0.042
		C4.947,3.848,8.68,3.396,12.452,3.11 M47.742,18.376c-0.038,0.035-0.076,0.071-0.116,0.104c-3.728,0.688-7.508,1.142-11.327,1.427
		c4.417-1.978,8.206-4.808,10.146-8.407C47.551,13.55,48.056,15.847,47.742,18.376"/>
	<path clip-path="url(#SVGID_2_)" fill="#5D2C84" d="M12.448,19.89c-4.391-1.879-8.15-4.618-10.026-8.389
		c-0.986,1.981-1.455,4.245-1.22,6.82l0.018,0.046l0.016,0.037l0.016,0.036l0.047,0.04C4.938,19.15,8.673,19.603,12.448,19.89
		 M36.293,3.091c3.814,0.285,7.59,0.739,11.333,1.429c0.04,0.035,0.078,0.069,0.116,0.104c0.313,2.533-0.191,4.829-1.296,6.876
		C44.504,7.898,40.714,5.069,36.293,3.091"/>
	<path clip-path="url(#SVGID_2_)" fill="#E90E8B" d="M2.421,11.5c-0.986,1.98-1.454,4.246-1.219,6.824l-0.016-0.039l-0.017-0.045
		l-0.031-0.077l-0.021-0.054l-0.029-0.075L1.07,17.988l-0.015-0.045l-0.003-0.007l-0.001-0.005l-0.01-0.025L1.02,17.853
		l-0.026-0.073l-0.019-0.053l-0.03-0.091l-0.013-0.035l-0.02-0.06l-0.01-0.029l-0.018-0.055l-0.031-0.09L0.843,17.33l-0.026-0.085
		L0.793,17.17l-0.018-0.058l-0.023-0.078l-0.021-0.065l-0.017-0.061v-0.003L0.71,16.892l-0.021-0.077l-0.011-0.039l-0.025-0.095
		l-0.018-0.058l-0.027-0.105l-0.003-0.011l-0.034-0.131l-0.004-0.02l-0.031-0.123L0.53,16.204H0.529l-0.026-0.113l-0.011-0.044
		l-0.021-0.098l-0.014-0.063l-0.021-0.098l-0.007-0.031l-0.015-0.071l-0.01-0.048l-0.005-0.024l-0.004-0.017l-0.012-0.061
		l-0.01-0.051l-0.007-0.038L0.365,15.44l-0.001-0.014l-0.008-0.032l-0.01-0.054L0.34,15.317l-0.001-0.015l-0.006-0.028l-0.014-0.079
		L0.315,15.18L0.31,15.144l-0.001-0.007l-0.002-0.013l-0.012-0.072l-0.005-0.028L0.28,14.969l-0.001-0.006L0.269,14.9l-0.006-0.031
		L0.251,14.79l-0.014-0.085l-0.006-0.04l-0.017-0.123l-0.003-0.008l-0.007-0.063l-0.003-0.015l-0.006-0.05L0.19,14.374l-0.007-0.048
		l-0.001-0.012l-0.009-0.07L0.168,14.21l-0.016-0.13l-0.003-0.031l-0.006-0.05L0.14,13.965l-0.001-0.009v-0.002L0.13,13.896
		l-0.001-0.011l-0.007-0.066v-0.003l-0.001-0.008l-0.001-0.018l-0.005-0.042l-0.002-0.01l-0.012-0.122v-0.015H0.101l-0.003-0.025
		l-0.009-0.105l-0.002-0.026l-0.002-0.018l-0.002-0.017l-0.01-0.115l-0.001-0.022v-0.002L0.07,13.254l-0.001-0.012l-0.001-0.021
		l-0.008-0.1L0.058,13.1l-0.002-0.026l-0.002-0.02l-0.002-0.038L0.05,12.979l-0.002-0.027l-0.001-0.028V12.92l-0.003-0.037
		l-0.007-0.117l-0.003-0.038l-0.001-0.015l-0.006-0.116v-0.01l-0.001-0.011l-0.001-0.02v-0.014l-0.006-0.135v-0.011v-0.017
		l-0.001-0.009l-0.005-0.143l-0.001-0.011v-0.011l-0.001-0.01L0.007,12.05v-0.007l-0.001-0.012v-0.006l-0.004-0.168v-0.002v-0.005
		L0,11.685v-0.002v-0.004v-0.002V11.5V11.5v-0.175v-0.002V11.32v-0.002l0.002-0.169v-0.004l0.004-0.168V10.97l0.001-0.01v-0.008
		l0.003-0.148v-0.011l0.001-0.016v-0.006l0.002-0.068l0.004-0.074l0.001-0.009v-0.015V10.59l0.006-0.131v-0.016l0.002-0.03
		l0.001-0.011l0.005-0.115l0.001-0.016l0.01-0.156l0.003-0.037v-0.005l0.005-0.087l0.002-0.039l0.002-0.02V9.927l0.002-0.026
		L0.06,9.88l0.008-0.101l0.001-0.021l0.002-0.023V9.732V9.728l0.001-0.024l0.01-0.114l0.002-0.017l0.002-0.018l0.002-0.024
		l0.009-0.107l0.003-0.026l0.001-0.014l0.001-0.006l0.011-0.118l0.002-0.009l0.006-0.057l0.001-0.01l0.007-0.069L0.13,9.104
		l0.007-0.056l0.001-0.003V9.044L0.14,9.036l0.003-0.033l0.006-0.051l0.003-0.035L0.16,8.867l0.002-0.015l0.006-0.064l0.005-0.032
		l0.009-0.067l0.001-0.016L0.19,8.628l0.005-0.037l0.006-0.049l0.003-0.015l0.007-0.061l0.003-0.008l0.017-0.122l0.006-0.041
		L0.251,8.21l0.012-0.079L0.269,8.1l0.01-0.063L0.28,8.033l0.009-0.056L0.294,7.95l0.012-0.073l0.002-0.012L0.31,7.859V7.857
		l0.006-0.035l0.004-0.017l0.014-0.081l0.006-0.026L0.34,7.686L0.345,7.66l0.004-0.023L0.364,7.57l0.001-0.007l0.001-0.009
		l0.007-0.04l0.01-0.049l0.012-0.062l0.004-0.016l0.005-0.024l0.01-0.049l0.015-0.069l0.007-0.031l0.021-0.098L0.471,7.05
		l0.015-0.067h0.001l0.005-0.027L0.503,6.91l0.027-0.11l0.006-0.03l0.031-0.125l0.004-0.02l0.034-0.131l0.003-0.012l0.027-0.104
		l0.018-0.06l0.025-0.095l0.011-0.036l0.025-0.089l0.001-0.006l0.017-0.062l0.021-0.065l0.023-0.081L0.793,5.83l0.023-0.074
		L0.843,5.67l0.011-0.034V5.633l0.031-0.088l0.018-0.054l0.029-0.089l0.013-0.038l0.03-0.086l0.019-0.054L1.02,5.148l0.01-0.023
		l0.011-0.029l0.011-0.028l0.004-0.012L1.07,5.015l0.019-0.048l0.029-0.075l0.021-0.053l0.031-0.078l0.017-0.042l0.016-0.041
		C0.969,7.252,1.435,9.518,2.421,11.5 M47.738,4.621c0.02,0.019,0.038,0.038,0.057,0.056l0.019,0.042l0.017,0.042l0.031,0.078
		l0.021,0.053l0.029,0.075l0.018,0.048l0.015,0.041l0.003,0.012l0.014,0.028l0.011,0.029l0.009,0.023l0.025,0.075l0.02,0.054
		l0.03,0.086l0.014,0.038l0.03,0.089l0.018,0.054l0.029,0.088v0.002l0.012,0.034l0.027,0.085l0.021,0.074l0.019,0.056l0.023,0.081
		l0.02,0.065l0.02,0.062v0.006l0.025,0.089l0.01,0.036l0.026,0.095l0.016,0.06l0.028,0.104l0.003,0.012l0.033,0.131l0.004,0.02
		l0.031,0.125l0.006,0.03l0.027,0.11l0.012,0.046l0.004,0.027h0.001L48.53,7.05l0.014,0.066l0.022,0.098l0.006,0.031l0.015,0.069
		l0.009,0.049l0.006,0.024l0.002,0.016l0.013,0.062l0.011,0.049l0.007,0.04l0.002,0.009l0.002,0.007l0.013,0.066l0.004,0.023
		l0.006,0.026l0.001,0.012l0.005,0.026l0.015,0.081l0.004,0.017l0.006,0.035v0.002l0.001,0.006l0.001,0.012l0.013,0.073l0.006,0.027
		l0.008,0.056l0.001,0.004L48.732,8.1l0.006,0.032l0.011,0.079l0.014,0.086l0.005,0.041l0.019,0.122l0.002,0.008l0.007,0.061
		l0.003,0.015l0.007,0.049l0.006,0.037l0.006,0.044l0.002,0.016l0.008,0.067l0.005,0.032l0.006,0.064l0.004,0.015l0.006,0.051
		l0.004,0.035l0.006,0.051l0.005,0.033l0.001,0.008v0.002v0.003l0.006,0.056l0.002,0.011l0.007,0.069v0.01l0.007,0.057l0.001,0.009
		l0.015,0.118v0.006L48.9,9.399l0.003,0.026l0.009,0.107l0.001,0.024l0.002,0.018l0.002,0.017l0.01,0.114l0.001,0.024v0.004v0.004
		l0.002,0.023l0.002,0.021l0.01,0.101v0.021l0.002,0.026v0.002l0.004,0.02l0.002,0.039l0.004,0.087v0.005l0.004,0.037l0.009,0.156
		l0.001,0.016l0.006,0.115v0.011l0.003,0.03v0.016l0.006,0.131v0.015v0.015l0.002,0.009l0.003,0.074l0.003,0.068v0.006v0.016v0.011
		l0.003,0.148v0.008l0.001,0.01v0.006l0.004,0.168v0.004l0.001,0.169v0.002v0.002v0.002L49,11.5V11.5l-0.002,0.176v0.002v0.004
		v0.002l-0.001,0.166v0.005v0.002l-0.004,0.168v0.006l-0.001,0.012v0.007l-0.003,0.148v0.01v0.011l-0.002,0.011l-0.004,0.143
		l-0.002,0.009v0.017v0.011l-0.006,0.135v0.014l-0.002,0.02l-0.001,0.011v0.01l-0.006,0.116l-0.001,0.015l-0.009,0.155l-0.004,0.037
		v0.004v0.028l-0.002,0.027l-0.002,0.036l-0.002,0.038l-0.004,0.02L48.941,13.1v0.021l-0.01,0.1l-0.002,0.021l-0.001,0.012
		l-0.001,0.018v0.002l-0.001,0.022l-0.01,0.115l-0.002,0.017l-0.002,0.018l-0.001,0.026l-0.009,0.105L48.9,13.603l-0.001,0.015
		l-0.015,0.122l-0.001,0.01l-0.003,0.042l-0.004,0.018v0.008v0.003l-0.007,0.066l-0.002,0.011l-0.006,0.058v0.002l-0.001,0.009
		l-0.005,0.034l-0.006,0.05l-0.004,0.031l-0.016,0.13l-0.005,0.034l-0.008,0.07l-0.002,0.012l-0.006,0.048l-0.006,0.033l-0.007,0.05
		l-0.003,0.015l-0.007,0.063l-0.002,0.008l-0.019,0.123l-0.005,0.04l-0.014,0.085l-0.011,0.079L48.732,14.9l-0.013,0.063
		l-0.001,0.006l-0.008,0.055l-0.006,0.028l-0.013,0.072l-0.001,0.013l-0.001,0.007l-0.006,0.036l-0.004,0.016l-0.015,0.079
		l-0.005,0.028l-0.001,0.015l-0.006,0.023l-0.011,0.054l-0.006,0.032l-0.002,0.014l-0.002,0.007l-0.007,0.038l-0.011,0.051
		l-0.013,0.061l-0.002,0.017l-0.006,0.024l-0.009,0.048l-0.015,0.071l-0.006,0.031l-0.022,0.098l-0.014,0.063l-0.021,0.098
		l-0.012,0.044l-0.027,0.113l-0.006,0.029l-0.031,0.123l-0.004,0.02l-0.033,0.131l-0.003,0.011l-0.028,0.105l-0.016,0.058
		l-0.026,0.095l-0.01,0.039l-0.022,0.077l-0.003,0.014v0.003l-0.02,0.061l-0.02,0.065l-0.023,0.078l-0.019,0.058l-0.021,0.075
		l-0.027,0.085l-0.012,0.037l-0.029,0.09l-0.018,0.055l-0.011,0.029l-0.02,0.06l-0.014,0.035l-0.03,0.091l-0.02,0.053l-0.025,0.073
		l-0.02,0.054l-0.012,0.025l-0.002,0.005l-0.001,0.007l-0.017,0.045l-0.018,0.045l-0.029,0.075l-0.021,0.054l-0.031,0.077
		l-0.017,0.045l-0.018,0.041c-0.019,0.019-0.038,0.036-0.058,0.056c0.316-2.533-0.188-4.834-1.294-6.884
		C47.548,9.45,48.055,7.151,47.738,4.621"/>
	<path clip-path="url(#SVGID_2_)" fill="#11ADE4" d="M24.941,23c-4.07-0.423-8.542-1.416-12.499-3.109
		c-3.773-0.288-7.506-0.74-11.144-1.411l-0.047-0.041l0.021,0.052l0.012,0.028l0.002,0.002l0.04,0.091l0.014,0.033l0.002,0.003
		l0.028,0.066l0.008,0.017l0.013,0.028l0.04,0.084l0.019,0.042l0.002,0.002l0.036,0.073l0.015,0.033l0.04,0.08l0.018,0.035
		l0.008,0.018l0.005,0.008l0.024,0.048l0.024,0.045l0.004,0.009l0.032,0.058l0.015,0.032l0.041,0.073l0.024,0.045l0.035,0.06
		l0.023,0.041l0.04,0.068l0.02,0.033l0.037,0.063l0.029,0.044l0.036,0.06l0.02,0.031h0.001l0.022,0.038h0.001l0.018,0.027
		l0.023,0.038h0.001l0.02,0.029l0.001,0.002v0.002h0.001l0.001,0.004l0.015,0.019L2.11,20.05l0.017,0.024l0.014,0.022l0.031,0.043
		l0.035,0.051l0.04,0.052l0.023,0.032l0.037,0.051l0.032,0.042l0.005,0.008l0.055,0.069v0.002l0.038,0.045l0.035,0.043l0.004,0.006
		h0.002l0.056,0.071l0.243,0.06l0.242,0.063l0.244,0.058l0.247,0.06l0.249,0.058l0.25,0.06l0.251,0.058l0.252,0.055l0.255,0.058
		l0.256,0.054l0.257,0.055L5.54,21.3l0.261,0.054l0.262,0.051l0.263,0.053l0.265,0.05l0.267,0.051l0.268,0.048l0.271,0.05
		l0.27,0.047l0.273,0.049l0.273,0.046l0.275,0.046l0.276,0.044l0.279,0.045l0.278,0.042l0.281,0.042l0.282,0.043l0.284,0.04
		l0.284,0.041l0.285,0.038h0.002l0.285,0.039l0.29,0.038l0.29,0.035l0.291,0.036l0.292,0.036l0.292,0.033l0.296,0.034l0.294,0.035
		l0.297,0.03l0.298,0.031l0.299,0.029l0.3,0.031l0.302,0.026l0.302,0.029l0.305,0.026l0.303,0.024l0.307,0.026l0.306,0.023
		l0.308,0.023h0.001l0.309,0.023l0.309,0.021h0.002l0.31,0.021l0.312,0.021l0.313,0.019l0.314,0.018l0.313,0.018l0.316,0.015
		l0.316,0.018l0.317,0.013l0.318,0.014l0.32,0.015l0.32,0.009L20.804,23H21.3h2.951h0.25h0.247H24.941z M47.738,4.621
		c-0.005-0.039-0.01-0.081-0.017-0.121l-0.008-0.018l-0.001-0.002l-0.029-0.069l-0.011-0.021L47.66,4.358l-0.002-0.004l-0.03-0.065
		l-0.007-0.018l-0.014-0.029l-0.039-0.084L47.55,4.116l-0.003-0.005l-0.032-0.069l-0.019-0.034l-0.039-0.081l-0.018-0.035
		l-0.008-0.018l-0.029-0.053l-0.024-0.049l-0.005-0.007l-0.029-0.058l-0.017-0.03L47.285,3.6L47.263,3.56l-0.035-0.062l-0.023-0.04
		l-0.039-0.07l-0.019-0.03l-0.038-0.063L47.08,3.248l-0.037-0.059l-0.02-0.035l-0.018-0.026L47.002,3.12l-0.004-0.004l-0.016-0.024
		l-0.023-0.036L46.94,3.027l-0.004-0.007l-0.004-0.004l-0.012-0.02L46.89,2.951l-0.017-0.022l-0.014-0.023l-0.032-0.043
		l-0.033-0.051l-0.039-0.052L46.73,2.727l-0.037-0.051L46.66,2.633l-0.004-0.007l-0.055-0.067V2.556L46.564,2.51l-0.035-0.043
		L46.525,2.46h-0.001l-0.059-0.07l-0.24-0.061l-0.244-0.06l-0.246-0.06L45.49,2.15l-0.248-0.058l-0.25-0.058l-0.253-0.057
		L44.486,1.92l-0.254-0.056l-0.254-0.056l-0.26-0.054l-0.26-0.054l-0.26-0.052l-0.263-0.054l-0.265-0.052l-0.265-0.048l-0.266-0.05
		l-0.269-0.05l-0.27-0.05l-0.271-0.046l-0.272-0.047l-0.273-0.045L40.511,1.16V1.158l-0.277-0.043l-0.277-0.042l-0.278-0.043
		l-0.28-0.044l-0.282-0.04l-0.283-0.041l-0.285-0.041l-0.286-0.039l-0.287-0.041l-0.287-0.037l-0.29-0.038l-0.293-0.035l-0.29-0.037
		l-0.293-0.034L36.227,0.57l-0.296-0.033l-0.297-0.03l-0.298-0.033l-0.3-0.029l-0.3-0.028l-0.302-0.03l-0.302-0.028l-0.304-0.027
		l-0.304-0.024L33.22,0.282l-0.307-0.023l-0.309-0.025l-0.31-0.022l-0.31-0.021l-0.31-0.02l-0.313-0.021l-0.312-0.02l-0.313-0.016
		l-0.314-0.019L30.107,0.08l-0.316-0.015L29.474,0.05l-0.317-0.013l-0.321-0.013l-0.319-0.012l-0.32-0.009V0h-0.496h-2.758
		c3.765,0.44,7.765,1.485,11.352,3.091c3.814,0.286,7.59,0.739,11.333,1.429C47.664,4.553,47.7,4.586,47.738,4.621"/>
	<path clip-path="url(#SVGID_2_)" fill="#FFFFFF" d="M10.69,8.115c2.474,0,3.489,1.542,3.05,4.625H8.857
		c0,1.041,0.819,1.561,2.459,1.561c0.752,0,1.507-0.076,2.258-0.221v1.546c-0.656,0.148-1.506,0.222-2.541,0.222
		c-2.708,0-4.058-1.318-4.058-3.954C6.976,9.375,8.215,8.115,10.69,8.115 M0.444,5.321v1.691h2.913v8.835h1.885V7.013h2.911V5.321
		H0.444z M45.355,6.866h1.392l0.286,1.25h1.784l0.143,1.547h-1.721v3.555c0,0.72,0.301,1.083,0.903,1.083h0.776l-0.154,1.547h-1.532
		c-1.249,0-1.877-0.696-1.877-2.085V6.866z M39.305,15.848V8.115h1.458l0.232,0.986c0.959-0.736,1.918-1.063,3.127-0.973v1.534
		c-0.634,0-1.805-0.153-2.933,1.006v5.179H39.305z M30.989,13.438c0-1.585,1.08-2.376,3.239-2.376c0.649,0,1.229,0.048,1.735,0.144
		v-0.504c0-0.693-0.648-1.039-1.939-1.039c-0.814,0-1.624,0.123-2.429,0.369V8.484c0.805-0.245,1.614-0.369,2.429-0.369
		c2.549,0,3.82,0.854,3.82,2.547v5.185h-0.952l-0.81-0.546c-0.648,0.363-1.338,0.546-2.074,0.546
		C31.996,15.848,30.989,15.045,30.989,13.438 M35.964,12.681c-0.475-0.097-1.052-0.146-1.735-0.146
		c-0.904,0-1.356,0.294-1.356,0.882c0,0.592,0.379,0.884,1.137,0.884c0.766,0,1.419-0.201,1.955-0.603V12.681z M22.739,15.848V5.321
		h1.885v3.635c0.775-0.561,1.622-0.841,2.535-0.841c1.719,0,2.58,0.961,2.58,2.88v4.853h-1.882v-4.872
		c0-0.858-0.41-1.284-1.229-1.284c-0.66,0-1.327,0.328-2.003,0.977v5.179H22.739z M21.251,14.08
		c-0.616,0.145-1.256,0.221-1.918,0.221c-1.589,0-2.381-0.821-2.381-2.468c0-1.446,0.792-2.17,2.381-2.17
		c0.662,0,1.302,0.072,1.918,0.221V8.337c-0.616-0.146-1.301-0.222-2.061-0.222c-2.748,0-4.121,1.24-4.121,3.717
		c0,2.676,1.374,4.015,4.121,4.015c0.76,0,1.445-0.073,2.061-0.222V14.08z M8.857,11.311h3.112c0.067-1.108-0.431-1.663-1.492-1.663
		C9.483,9.648,8.942,10.203,8.857,11.311"/>
	<path clip-path="url(#SVGID_2_)" fill="#58A947" d="M24.953,23c3.766-0.441,7.764-1.487,11.346-3.093l-0.183,0.013l-0.186,0.015
		c-0.426,0.031-0.855,0.057-1.284,0.087l-0.182,0.009h-0.006c-0.183,0.012-0.364,0.023-0.546,0.033l-0.185,0.011H33.72l-0.176,0.009
		l-0.184,0.012h-0.013l-0.172,0.01l-0.185,0.009l-0.184,0.008l-0.185,0.009l-0.185,0.01l-0.184,0.008h-0.004l-0.183,0.009
		l-0.185,0.007l-0.175,0.008H31.7l-0.185,0.009l-0.186,0.005l-0.185,0.01h-0.005l-0.18,0.005l-0.186,0.006l-0.151,0.006
		l-0.032,0.002l-0.187,0.007l-0.152,0.004l-0.031,0.002l-0.185,0.006l-0.064,0.003l-0.121,0.002l-0.187,0.006l-0.17,0.004h-0.014
		l-0.187,0.006l-0.056,0.001l-0.13,0.004l-0.186,0.005l-0.15,0.002l-0.035,0.002l-0.186,0.004l-0.131,0.003h-0.054l-0.185,0.004
		l-0.115,0.002l-0.257,0.007h-0.039h-0.048l-0.257,0.004l-0.028,0.001h-0.034h-0.055l-0.283,0.006h-0.028l-0.157,0.002L26.696,20.3
		H26.67l-0.049,0.003h-0.24l-0.161,0.002l-0.081,0.002h-0.186h-0.018H25.93l-0.35,0.003h-0.013h-0.359h-0.009l-0.365,0.003h-0.004
		h-0.368h-0.309h-0.056h-0.01h-0.189l-0.167-0.003h-0.02h-0.307h-0.041h-0.029l-0.313-0.003h-0.023h-0.04
		c-0.188-0.002-0.376-0.004-0.565-0.004L22.266,20.3h-0.059l-0.299-0.004H21.9l-0.071-0.002l-0.271-0.004h-0.025l-0.081-0.001
		l-0.188-0.002l-0.031-0.002l-0.129-0.002l-0.029-0.002l-0.187-0.003l-0.09-0.002h-0.01l-0.307-0.006l-0.117-0.003l-0.041-0.002
		l-0.188-0.004h-0.068l-0.048-0.002l-0.264-0.007L19.62,20.25l-0.048-0.002l-0.188-0.006h-0.048l-0.14-0.004l-0.188-0.005h-0.039
		l-0.151-0.006l-0.187-0.006l-0.029-0.002l-0.16-0.007l-0.189-0.006l-0.147-0.006l-0.04-0.002l-0.188-0.005h-0.007l-0.071-0.004
		l-0.224-0.008l-0.073-0.002h-0.001l-0.189-0.008l-0.175-0.008l-0.013-0.002l-0.188-0.005l-0.166-0.008l-0.021-0.003l-0.029-0.002
		l-0.275-0.011l-0.04-0.002l-0.032-0.003l-0.288-0.013l-0.045-0.002l-0.043-0.002l-0.187-0.009l-0.136-0.008l-0.051-0.002
		l-0.188-0.013l-0.044-0.002l-0.129-0.006l-0.013-0.002l-0.189-0.009l-0.019-0.002l-0.164-0.009h-0.004l-0.188-0.013l-0.042-0.002
		l-0.117-0.008l-0.266-0.016l-0.087-0.003l-0.289-0.021l-0.072-0.004l-0.287-0.018l-0.112-0.011l-0.039-0.002l-0.187-0.012
		l-0.019-0.002l-0.12-0.009l-0.047-0.004l-0.188-0.015l-0.14-0.009l-0.047-0.004l-0.186-0.013c3.954,1.692,8.422,2.687,12.491,3.109
		H24.953z M24.949,0c3.763,0.44,7.762,1.487,11.344,3.091l-0.354-0.027h-0.018l-0.178-0.014l-0.184-0.013l-0.024-0.002l-0.159-0.011
		l-0.183-0.011l-0.003-0.002l-0.181-0.01l-0.183-0.012H34.82c-0.181-0.013-0.361-0.023-0.543-0.034l-0.183-0.009l-0.183-0.012
		l-0.186-0.01l-0.183-0.012L33.36,2.907l-0.185-0.011l-0.184-0.009l-0.184-0.01h-0.001l-0.183-0.009l-0.186-0.007l-0.184-0.01
		l-0.185-0.007l-0.185-0.008L31.708,2.83h-0.005l-0.186-0.008l-0.161-0.008h-0.022L31.15,2.807l-0.075-0.002L30.964,2.8L30.78,2.795
		l-0.133-0.006L30.41,2.781l-0.128-0.004l-0.056-0.001L30.04,2.77l-0.144-0.004l-0.04-0.002L29.67,2.758l-0.156-0.002l-0.027-0.002
		l-0.186-0.006l-0.054-0.002h-0.063L28.931,2.74h-0.048l-0.139-0.005l-0.186-0.004l-0.043-0.002h-0.031l-0.289-0.005h-0.007
		l-0.041-0.002L28.002,2.72l-0.187-0.002h-0.036l-0.031-0.002L27.444,2.71h-0.031h-0.044l-0.296-0.004l-0.028-0.001h-0.029
		L26.7,2.703h-0.023l-0.348-0.004l-0.021-0.002h-0.166l-0.186-0.002H25.94H25.77l-0.188-0.002h-0.011L25.397,2.69h-0.188h-0.007
		l-0.179-0.002h-0.188h-0.003h-0.37h-0.309h-0.056h-0.011h-0.049L23.73,2.69h-0.02c-0.22,0.002-0.439,0.002-0.66,0.004h-0.053h-0.04
		c-0.227,0.002-0.452,0.004-0.679,0.008h-0.015h-0.061l-0.188,0.002l-0.119,0.001h-0.068L21.564,2.71h-0.034l-0.08,0.004
		l-0.266,0.004h-0.042l-0.32,0.006h-0.051l-0.327,0.007h-0.04L20.082,2.74h-0.017l-0.119,0.003l-0.188,0.004l-0.059,0.002
		L19.57,2.75l-0.189,0.008h-0.049L19.266,2.76l-0.241,0.008L18.902,2.77l-0.273,0.011h-0.029h-0.028l-0.282,0.01h-0.037
		l-0.021,0.002l-0.068,0.003l-0.239,0.011h-0.048h-0.009l-0.063,0.004l-0.232,0.007l-0.071,0.004l-0.188,0.006L17.266,2.83
		l-0.14,0.007l-0.188,0.008l-0.051,0.002l-0.135,0.005l-0.189,0.01h-0.011l-0.329,0.016l-0.062,0.002l-0.159,0.008l-0.267,0.015
		l-0.109,0.004l-0.188,0.009L15.394,2.92l-0.118,0.006L15.01,2.94l-0.123,0.007L14.876,2.95l-0.187,0.009h-0.021l-0.14,0.009
		L14.501,2.97l-0.188,0.011l-0.019,0.002l-0.168,0.01l-0.188,0.013h-0.015l-0.162,0.01h-0.01l-0.187,0.013l-0.174,0.012
		l-0.014,0.002l-0.187,0.012l-0.009,0.002l-0.125,0.007l-0.186,0.013l-0.198,0.016l-0.042,0.003l-0.187,0.014
		C16.403,1.417,20.871,0.425,24.938,0H24.949z"/>
</g>
</svg>
